<?xml version="1.0" encoding="UTF-8" standalone="no"?>
<svg width="168px" height="20px" viewBox="0 0 168 20" version="1.1" xmlns="http://www.w3.org/2000/svg" xmlns:xlink="http://www.w3.org/1999/xlink" xmlns:sketch="http://www.bohemiancoding.com/sketch/ns">
    <!-- Generator: Sketch 3.4 (15588) - http://www.bohemiancoding.com/sketch -->
    <title>GET HELP - Codementor</title>
    <desc>Codementor Badge For GitHub.</desc>
    <defs></defs>
    <g id="Page-1" stroke="none" stroke-width="1" fill="none" fill-rule="evenodd" sketch:type="MSPage">
        <g id="Badge-For-Github-3" sketch:type="MSLayerGroup">
            <g id="Group" sketch:type="MSShapeGroup">
                <path d="M9.5,0 L2.22898489,0 C1.00247329,0 0,0.992479891 0,2.21676588 L0,17.7832341 C0,19.0081969 0.997950529,20 2.22898489,20 L9.5,20 L93,20 L93,0 L9.5,0 Z" id="Rectangle-175" fill="#073648"></path>
                <path d="M20.5338869,10.2548476 C20.5338869,9.84856676 20.6040617,9.46445241 20.7444133,9.10249307 C20.8847648,8.74053374 21.0879022,8.42290072 21.3538315,8.14958449 C21.6197608,7.87626825 21.9410873,7.65835723 22.3178205,7.49584488 C22.6945536,7.33333252 23.1192955,7.25207756 23.5920587,7.25207756 C24.2273343,7.25207756 24.7684184,7.38873363 25.2153274,7.66204986 C25.6622364,7.93536609 25.9964897,8.29362659 26.2180975,8.73684211 L24.7665739,9.1800554 C24.6409962,8.96583457 24.4747929,8.80147795 24.267959,8.68698061 C24.0611251,8.57248327 23.8321338,8.51523546 23.5809784,8.51523546 C23.3667575,8.51523546 23.1673135,8.55770964 22.9826404,8.64265928 C22.7979673,8.72760892 22.6373041,8.84579795 22.5006459,8.99722992 C22.3639878,9.14866188 22.256879,9.33148554 22.1793163,9.54570637 C22.1017536,9.7599272 22.0629728,9.99630526 22.0629728,10.2548476 C22.0629728,10.51339 22.1036003,10.7497681 22.1848565,10.9639889 C22.2661126,11.1782098 22.3750682,11.3628801 22.5117263,11.5180055 C22.6483844,11.673131 22.8090476,11.7931667 22.9937207,11.8781163 C23.1783939,11.963066 23.3741444,12.0055402 23.5809784,12.0055402 C23.8469077,12.0055402 24.0925192,11.9390588 24.3178205,11.8060942 C24.5431217,11.6731295 24.7000915,11.5106196 24.7887346,11.3185596 L26.2402581,11.7617729 C26.0408111,12.2049884 25.7120979,12.5669423 25.2541085,12.8476454 C24.7961192,13.1283486 24.2458015,13.2686981 23.603139,13.2686981 C23.1303758,13.2686981 22.705634,13.1874431 22.3289008,13.0249307 C21.9521676,12.8624184 21.6308412,12.6426607 21.3649119,12.365651 C21.0989826,12.0886413 20.8939985,11.7673148 20.7499534,11.401662 C20.6059084,11.0360093 20.5338869,10.6537416 20.5338869,10.2548476 L20.5338869,10.2548476 Z M29.8924028,13.2686981 C29.4196396,13.2686981 28.9948978,13.1874431 28.6181646,13.0249307 C28.2414314,12.8624184 27.9219517,12.6426607 27.6597159,12.365651 C27.39748,12.0886413 27.1961893,11.7691616 27.0558377,11.4072022 C26.9154862,11.0452429 26.8453114,10.6648219 26.8453114,10.265928 C26.8453114,9.85964709 26.9154862,9.47553274 27.0558377,9.11357341 C27.1961893,8.75161407 27.39748,8.43213435 27.6597159,8.15512465 C27.9219517,7.87811496 28.2414314,7.65835723 28.6181646,7.49584488 C28.9948978,7.33333252 29.4196396,7.25207756 29.8924028,7.25207756 C30.365166,7.25207756 30.7880612,7.33333252 31.1611009,7.49584488 C31.5341406,7.65835723 31.8517736,7.87811496 32.1140095,8.15512465 C32.3762453,8.43213435 32.577536,8.75161407 32.7178876,9.11357341 C32.8582392,9.47553274 32.9284139,9.85964709 32.9284139,10.265928 C32.9284139,10.6648219 32.8582392,11.0452429 32.7178876,11.4072022 C32.577536,11.7691616 32.378092,12.0886413 32.1195496,12.365651 C31.8610073,12.6426607 31.5433742,12.8624184 31.1666411,13.0249307 C30.7899079,13.1874431 30.365166,13.2686981 29.8924028,13.2686981 L29.8924028,13.2686981 Z M28.3743973,10.265928 C28.3743973,10.5244704 28.4131781,10.7590017 28.4907408,10.9695291 C28.5683035,11.1800565 28.6754123,11.3628801 28.8120704,11.5180055 C28.9487285,11.673131 29.1093918,11.7931667 29.2940649,11.8781163 C29.478738,11.963066 29.678182,12.0055402 29.8924028,12.0055402 C30.1066237,12.0055402 30.3060677,11.963066 30.4907408,11.8781163 C30.6754139,11.7931667 30.8360771,11.673131 30.9727352,11.5180055 C31.1093934,11.3628801 31.2165022,11.1782098 31.2940649,10.9639889 C31.3716276,10.7497681 31.4104084,10.51339 31.4104084,10.2548476 C31.4104084,10.0036922 31.3716276,9.77100753 31.2940649,9.5567867 C31.2165022,9.34256587 31.1093934,9.15789551 30.9727352,9.00277008 C30.8360771,8.84764465 30.6754139,8.72760892 30.4907408,8.64265928 C30.3060677,8.55770964 30.1066237,8.51523546 29.8924028,8.51523546 C29.678182,8.51523546 29.478738,8.55955634 29.2940649,8.64819945 C29.1093918,8.73684255 28.9487285,8.85872499 28.8120704,9.01385042 C28.6754123,9.16897584 28.5683035,9.3536462 28.4907408,9.56786704 C28.4131781,9.78208787 28.3743973,10.0147725 28.3743973,10.265928 L28.3743973,10.265928 Z M36.4475946,13.2686981 C36.0487007,13.2686981 35.67936,13.1911365 35.3395614,13.0360111 C34.9997628,12.8808857 34.7079837,12.666668 34.4642151,12.3933518 C34.2204466,12.1200356 34.0302361,11.8005558 33.893578,11.434903 C33.7569199,11.0692502 33.6885919,10.6759024 33.6885919,10.2548476 C33.6885919,9.83379291 33.7532265,9.44229175 33.8824977,9.08033241 C34.0117689,8.71837307 34.1908991,8.40074006 34.4198938,8.12742382 C34.6488885,7.85410759 34.9222006,7.63988997 35.2398384,7.48476454 C35.5574762,7.32963911 35.9046565,7.25207756 36.2813896,7.25207756 C36.7098313,7.25207756 37.0957924,7.35549296 37.4392844,7.56232687 C37.7827764,7.76916078 38.0505484,8.0387795 38.2426085,8.37119114 L38.2426085,5.06925208 L39.727373,5.06925208 L39.727373,11.4515235 C39.727373,11.606649 39.7532269,11.7174512 39.8049354,11.7839335 C39.8566438,11.8504158 39.9452856,11.8873499 40.0708633,11.8947368 L40.0708633,13.1578947 C39.8123209,13.2096032 39.6017967,13.2354571 39.4392844,13.2354571 C39.1733551,13.2354571 38.9554441,13.1689757 38.7855448,13.0360111 C38.6156455,12.9030464 38.5196169,12.7294563 38.4974561,12.5152355 L38.4642151,12.1495845 C38.2499943,12.5189307 37.9600618,12.797783 37.594409,12.9861496 C37.2287562,13.1745162 36.8464886,13.2686981 36.4475946,13.2686981 L36.4475946,13.2686981 Z M36.8354063,12.0055402 C36.9757578,12.0055402 37.1198007,11.981533 37.2675392,11.933518 C37.4152777,11.885503 37.5519338,11.817175 37.6775115,11.7285319 C37.8030893,11.6398888 37.9157382,11.5364734 38.0154617,11.4182825 C38.1151852,11.3000917 38.1909,11.1708225 38.2426085,11.0304709 L38.2426085,9.64542936 C38.1835131,9.48291701 38.1004114,9.33333402 37.993301,9.1966759 C37.8861906,9.06001778 37.7643081,8.94182875 37.62765,8.84210526 C37.4909919,8.74238177 37.346949,8.66297352 37.1955171,8.60387812 C37.0440851,8.54478271 36.8945021,8.51523546 36.7467636,8.51523546 C36.5251559,8.51523546 36.3201718,8.56324975 36.1318052,8.65927978 C35.9434386,8.75530981 35.7827754,8.88642576 35.6498107,9.05263158 C35.516846,9.2188374 35.4134306,9.40904787 35.3395614,9.6232687 C35.2656921,9.83748953 35.2287581,10.059094 35.2287581,10.2880886 C35.2287581,10.5318572 35.2693855,10.757155 35.3506417,10.9639889 C35.4318979,11.1708228 35.5427001,11.3517998 35.6830517,11.5069252 C35.8234033,11.6620506 35.9914533,11.7839331 36.1872068,11.8725762 C36.3829603,11.9612193 36.5990247,12.0055402 36.8354063,12.0055402 L36.8354063,12.0055402 Z M44.0000163,13.2686981 C43.5346401,13.2686981 43.1135916,13.1892898 42.7368585,13.0304709 C42.3601253,12.871652 42.0387988,12.6555877 41.7728695,12.3822715 C41.5069402,12.1089552 41.3019561,11.7913222 41.1579111,11.4293629 C41.013866,11.0674035 40.9418446,10.6869826 40.9418446,10.2880886 C40.9418446,9.87442083 41.0120193,9.48476637 41.1523709,9.11911357 C41.2927225,8.75346078 41.4958599,8.43213435 41.7617892,8.15512465 C42.0277185,7.87811496 42.3508916,7.65835723 42.7313183,7.49584488 C43.1117449,7.33333252 43.5383335,7.25207756 44.0110967,7.25207756 C44.4838599,7.25207756 44.906755,7.33333252 45.2797947,7.49584488 C45.6528345,7.65835723 45.9704675,7.87626825 46.2327033,8.14958449 C46.4949392,8.42290072 46.6943832,8.74053374 46.8310413,9.10249307 C46.9676994,9.46445241 47.0360274,9.84117994 47.0360274,10.232687 C47.0360274,10.328717 47.0341807,10.4210522 47.0304873,10.5096953 C47.0267938,10.5983384 47.0175603,10.6722065 47.0027864,10.7313019 L42.5152518,10.7313019 C42.5374126,10.9602966 42.5928137,11.163434 42.6814568,11.3407202 C42.7700999,11.5180064 42.8845955,11.6694361 43.0249471,11.7950139 C43.1652987,11.9205916 43.3241152,12.0166202 43.5014014,12.0831025 C43.6786876,12.1495848 43.863358,12.1828255 44.055418,12.1828255 C44.350895,12.1828255 44.6297473,12.110804 44.8919831,11.966759 C45.1542189,11.822714 45.3333492,11.6325035 45.4293792,11.3961219 L46.7036175,11.7506925 C46.4893966,12.193908 46.1477565,12.5577086 45.6786867,12.8421053 C45.209617,13.1265019 44.6500658,13.2686981 44.0000163,13.2686981 L44.0000163,13.2686981 Z M45.5069416,9.76731302 C45.4700069,9.33148443 45.3093437,8.98245745 45.0249471,8.72022161 C44.7405505,8.45798576 44.3952169,8.32686981 43.988936,8.32686981 C43.789489,8.32686981 43.602972,8.36195717 43.4293792,8.43213296 C43.2557865,8.50230875 43.1025101,8.60018404 42.9695454,8.72576177 C42.8365808,8.8513395 42.7276253,9.0027692 42.6426756,9.1800554 C42.557726,9.35734161 42.507865,9.55309219 42.4930911,9.76731302 L45.5069416,9.76731302 Z M57.0815239,13.1578947 L55.5967594,13.1578947 L55.5967594,9.90027701 C55.5967594,9.43490072 55.5173511,9.09510726 55.3585322,8.88088643 C55.1997133,8.6666656 54.9799556,8.55955679 54.6992525,8.55955679 C54.4037755,8.55955679 54.1267699,8.67220571 53.8682275,8.89750693 C53.6096852,9.12280814 53.4250148,9.41643402 53.3142109,9.77839335 L53.3142109,13.1578947 L51.8294464,13.1578947 L51.8294464,9.90027701 C51.8294464,9.43490072 51.7500381,9.09510726 51.5912192,8.88088643 C51.4324003,8.6666656 51.2126426,8.55955679 50.9319394,8.55955679 C50.6438494,8.55955679 50.3686905,8.670359 50.1064547,8.89196676 C49.8442188,9.11357452 49.6577018,9.40535368 49.5468979,9.76731302 L49.5468979,13.1578947 L48.0621333,13.1578947 L48.0621333,7.35180055 L49.4028536,7.35180055 L49.4028536,8.4265928 C49.6170744,8.04985961 49.9107003,7.75992715 50.28374,7.5567867 C50.6567797,7.35364626 51.0833683,7.25207756 51.5635184,7.25207756 C52.0510555,7.25207756 52.427783,7.37026659 52.6937123,7.6066482 C52.9596416,7.84302981 53.1295383,8.13480898 53.2034076,8.48199446 C53.4397892,8.0831005 53.7389552,7.7783944 54.1009145,7.56786704 C54.4628738,7.35733967 54.8765355,7.25207756 55.3419117,7.25207756 C55.6964842,7.25207756 55.9882633,7.31855889 56.217258,7.45152355 C56.4462527,7.5844882 56.6235362,7.75807834 56.749114,7.97229917 C56.8746917,8.18652 56.9614868,8.43028488 57.0095018,8.70360111 C57.0575168,8.97691734 57.0815239,9.25392288 57.0815239,9.53462604 L57.0815239,13.1578947 Z M61.1879623,13.2686981 C60.722586,13.2686981 60.3015376,13.1892898 59.9248044,13.0304709 C59.5480712,12.871652 59.2267448,12.6555877 58.9608155,12.3822715 C58.6948861,12.1089552 58.489902,11.7913222 58.345857,11.4293629 C58.201812,11.0674035 58.1297905,10.6869826 58.1297905,10.2880886 C58.1297905,9.87442083 58.1999653,9.48476637 58.3403168,9.11911357 C58.4806684,8.75346078 58.6838058,8.43213435 58.9497351,8.15512465 C59.2156644,7.87811496 59.5388376,7.65835723 59.9192642,7.49584488 C60.2996909,7.33333252 60.7262794,7.25207756 61.1990426,7.25207756 C61.6718058,7.25207756 62.0947009,7.33333252 62.4677407,7.49584488 C62.8407804,7.65835723 63.1584134,7.87626825 63.4206492,8.14958449 C63.6828851,8.42290072 63.8823291,8.74053374 64.0189872,9.10249307 C64.1556453,9.46445241 64.2239733,9.84117994 64.2239733,10.232687 C64.2239733,10.328717 64.2221266,10.4210522 64.2184332,10.5096953 C64.2147397,10.5983384 64.2055062,10.6722065 64.1907323,10.7313019 L59.7031977,10.7313019 C59.7253585,10.9602966 59.7807596,11.163434 59.8694027,11.3407202 C59.9580458,11.5180064 60.0725414,11.6694361 60.212893,11.7950139 C60.3532446,11.9205916 60.5120611,12.0166202 60.6893473,12.0831025 C60.8666335,12.1495848 61.0513039,12.1828255 61.2433639,12.1828255 C61.5388409,12.1828255 61.8176932,12.110804 62.079929,11.966759 C62.3421649,11.822714 62.5212951,11.6325035 62.6173251,11.3961219 L63.8915634,11.7506925 C63.6773425,12.193908 63.3357024,12.5577086 62.8666326,12.8421053 C62.3975629,13.1265019 61.8380117,13.2686981 61.1879623,13.2686981 L61.1879623,13.2686981 Z M62.6948875,9.76731302 C62.6579528,9.33148443 62.4972896,8.98245745 62.212893,8.72022161 C61.9284964,8.45798576 61.5831628,8.32686981 61.1768819,8.32686981 C60.977435,8.32686981 60.7909179,8.36195717 60.6173251,8.43213296 C60.4437324,8.50230875 60.290456,8.60018404 60.1574914,8.72576177 C60.0245267,8.8513395 59.9155712,9.0027692 59.8306215,9.1800554 C59.7456719,9.35734161 59.6958109,9.55309219 59.6810371,9.76731302 L62.6948875,9.76731302 Z M70.6462012,13.1578947 L69.1614366,13.1578947 L69.1614366,9.90027701 C69.1614366,9.43490072 69.0801817,9.09510726 68.9176693,8.88088643 C68.7551569,8.6666656 68.5298591,8.55955679 68.241769,8.55955679 C68.0940305,8.55955679 67.9426008,8.58910404 67.7874754,8.64819945 C67.63235,8.70729485 67.4864604,8.79039651 67.3498023,8.89750693 C67.2131441,9.00461734 67.089415,9.13203989 66.9786111,9.27977839 C66.8678072,9.4275169 66.7865523,9.59002681 66.7348438,9.76731302 L66.7348438,13.1578947 L65.2500793,13.1578947 L65.2500793,7.35180055 L66.5907995,7.35180055 L66.5907995,8.4265928 C66.8050203,8.05724654 67.1152665,7.76916078 67.5215474,7.56232687 C67.9278283,7.35549296 68.3858108,7.25207756 68.8955086,7.25207756 C69.257468,7.25207756 69.5529405,7.31855889 69.7819352,7.45152355 C70.0109299,7.5844882 70.1882135,7.75807834 70.3137912,7.97229917 C70.4393689,8.18652 70.526164,8.43028488 70.574179,8.70360111 C70.622194,8.97691734 70.6462012,9.25392288 70.6462012,9.53462604 L70.6462012,13.1578947 Z M75.4839414,12.8587258 C75.2844944,12.9473689 75.0407296,13.0360106 74.7526395,13.1246537 C74.4645494,13.2132968 74.16169,13.2576177 73.8440522,13.2576177 C73.6372183,13.2576177 73.4433144,13.2317639 73.2623348,13.1800554 C73.0813551,13.1283469 72.9225386,13.0452453 72.7858805,12.9307479 C72.6492224,12.8162506 72.5402669,12.6685143 72.4590107,12.4875346 C72.3777545,12.306555 72.337127,12.0867972 72.337127,11.8282548 L72.337127,8.49307479 L71.5725841,8.49307479 L71.5725841,7.35180055 L72.337127,7.35180055 L72.337127,5.46814404 L73.8218916,5.46814404 L73.8218916,7.35180055 L75.0407281,7.35180055 L75.0407281,8.49307479 L73.8218916,8.49307479 L73.8218916,11.3296399 C73.8218916,11.5364738 73.875446,11.6823634 73.9825564,11.767313 C74.0896668,11.8522627 74.2207828,11.8947368 74.3759082,11.8947368 C74.5310336,11.8947368 74.6824633,11.868883 74.8302018,11.8171745 C74.9779403,11.765466 75.0961293,11.7211452 75.1847725,11.6842105 L75.4839414,12.8587258 Z M78.9144795,13.2686981 C78.4417163,13.2686981 78.0169744,13.1874431 77.6402413,13.0249307 C77.2635081,12.8624184 76.9440283,12.6426607 76.6817925,12.365651 C76.4195567,12.0886413 76.218266,11.7691616 76.0779144,11.4072022 C75.9375628,11.0452429 75.8673881,10.6648219 75.8673881,10.265928 C75.8673881,9.85964709 75.9375628,9.47553274 76.0779144,9.11357341 C76.218266,8.75161407 76.4195567,8.43213435 76.6817925,8.15512465 C76.9440283,7.87811496 77.2635081,7.65835723 77.6402413,7.49584488 C78.0169744,7.33333252 78.4417163,7.25207756 78.9144795,7.25207756 C79.3872427,7.25207756 79.8101378,7.33333252 80.1831775,7.49584488 C80.5562173,7.65835723 80.8738503,7.87811496 81.1360861,8.15512465 C81.398322,8.43213435 81.5996127,8.75161407 81.7399642,9.11357341 C81.8803158,9.47553274 81.9504906,9.85964709 81.9504906,10.265928 C81.9504906,10.6648219 81.8803158,11.0452429 81.7399642,11.4072022 C81.5996127,11.7691616 81.4001687,12.0886413 81.1416263,12.365651 C80.8830839,12.6426607 80.5654509,12.8624184 80.1887177,13.0249307 C79.8119845,13.1874431 79.3872427,13.2686981 78.9144795,13.2686981 L78.9144795,13.2686981 Z M77.3964739,10.265928 C77.3964739,10.5244704 77.4352547,10.7590017 77.5128174,10.9695291 C77.5903801,11.1800565 77.697489,11.3628801 77.8341471,11.5180055 C77.9708052,11.673131 78.1314684,11.7931667 78.3161415,11.8781163 C78.5008147,11.963066 78.7002587,12.0055402 78.9144795,12.0055402 C79.1287003,12.0055402 79.3281443,11.963066 79.5128174,11.8781163 C79.6974906,11.7931667 79.8581538,11.673131 79.9948119,11.5180055 C80.13147,11.3628801 80.2385788,11.1782098 80.3161415,10.9639889 C80.3937042,10.7497681 80.432485,10.51339 80.432485,10.2548476 C80.432485,10.0036922 80.3937042,9.77100753 80.3161415,9.5567867 C80.2385788,9.34256587 80.13147,9.15789551 79.9948119,9.00277008 C79.8581538,8.84764465 79.6974906,8.72760892 79.5128174,8.64265928 C79.3281443,8.55770964 79.1287003,8.51523546 78.9144795,8.51523546 C78.7002587,8.51523546 78.5008147,8.55955634 78.3161415,8.64819945 C78.1314684,8.73684255 77.9708052,8.85872499 77.8341471,9.01385042 C77.697489,9.16897584 77.5903801,9.3536462 77.5128174,9.56786704 C77.4352547,9.78208787 77.3964739,10.0147725 77.3964739,10.265928 L77.3964739,10.265928 Z M86.5223029,8.63711911 C86.0717004,8.64450604 85.669119,8.73130111 85.3145466,8.89750693 C84.9599742,9.06371274 84.7051291,9.31301773 84.5500037,9.64542936 L84.5500037,13.1578947 L83.0652391,13.1578947 L83.0652391,7.35180055 L84.42812,7.35180055 L84.42812,8.59279778 C84.531537,8.3933508 84.6534194,8.21422055 84.793771,8.05540166 C84.9341226,7.89658277 85.0855523,7.75808 85.2480646,7.6398892 C85.410577,7.52169839 85.5749336,7.43120992 85.7411394,7.36842105 C85.9073452,7.30563219 86.0680085,7.27423823 86.2231339,7.27423823 L86.4059594,7.27423823 C86.4465875,7.27423823 86.4853682,7.27793163 86.5223029,7.28531856 L86.5223029,8.63711911 Z" id="codementor" fill="#FFFFFF"></path>
                <path d="M93,0 L163,0 L163,20 L93,20 L93,0 Z M163,0 L165.777809,0 C167.005091,0 168,0.99180311 168,2.21676588 L168,17.7832341 C168,19.0075201 167.012161,20 165.777809,20 L163,20 L163,0 Z" id="Rectangle-180" fill="#149290"></path>
                <path d="M105.415352,12.2786298 L105.415352,10.3260458 L103.808487,10.3260458 L103.808487,9.51774424 L106.389209,9.51774424 L106.389209,12.638957 C106.009403,12.9083922 105.590648,13.1120887 105.132933,13.2500525 C104.675218,13.3880163 104.186671,13.4569972 103.667278,13.4569972 C102.531105,13.4569972 101.642469,13.1250775 101.001343,12.4612281 C100.360217,11.7973786 100.039659,10.873035 100.039659,9.68816927 C100.039659,8.50005738 100.360217,7.57409062 101.001343,6.91024121 C101.642469,6.2463918 102.531105,5.91447208 103.667278,5.91447208 C104.141224,5.91447208 104.591628,5.97290293 105.018505,6.0897664 C105.445381,6.20662986 105.838978,6.37867627 106.199307,6.60591079 L106.199307,7.65280743 C105.835732,7.34441773 105.449439,7.11231739 105.040416,6.95649943 C104.631394,6.80068148 104.201278,6.72277367 103.750056,6.72277367 C102.860595,6.72277367 102.192698,6.97110481 101.746344,7.46777454 C101.299991,7.96444426 101.076817,8.70456844 101.076817,9.68816927 C101.076817,10.6685239 101.299991,11.407025 101.746344,11.9036947 C102.192698,12.4003645 102.860595,12.6486956 103.750056,12.6486956 C104.0974,12.6486956 104.407408,12.6186686 104.680089,12.5586138 C104.952771,12.4985589 105.197856,12.4052319 105.415352,12.2786298 L105.415352,12.2786298 Z M108.296779,6.04594282 L112.893386,6.04594282 L112.893386,6.87372156 L109.280375,6.87372156 L109.280375,9.02594628 L112.742438,9.02594628 L112.742438,9.85372502 L109.280375,9.85372502 L109.280375,12.4880091 L112.981033,12.4880091 L112.981033,13.3157879 L108.296779,13.3157879 L108.296779,6.04594282 Z M113.700497,6.04594282 L119.850406,6.04594282 L119.850406,6.87372156 L117.269684,6.87372156 L117.269684,13.3157879 L116.281219,13.3157879 L116.281219,6.87372156 L113.700497,6.87372156 L113.700497,6.04594282 Z M124.191429,6.04594282 L125.175025,6.04594282 L125.175025,9.02594628 L128.749082,9.02594628 L128.749082,6.04594282 L129.732678,6.04594282 L129.732678,13.3157879 L128.749082,13.3157879 L128.749082,9.85372502 L125.175025,9.85372502 L125.175025,13.3157879 L124.191429,13.3157879 L124.191429,6.04594282 Z M131.800934,6.04594282 L136.397541,6.04594282 L136.397541,6.87372156 L132.78453,6.87372156 L132.78453,9.02594628 L136.246593,9.02594628 L136.246593,9.85372502 L132.78453,9.85372502 L132.78453,12.4880091 L136.485188,12.4880091 L136.485188,13.3157879 L131.800934,13.3157879 L131.800934,6.04594282 Z M138.212594,6.04594282 L139.19619,6.04594282 L139.19619,12.4880091 L142.736162,12.4880091 L142.736162,13.3157879 L138.212594,13.3157879 L138.212594,6.04594282 Z M144.86285,6.85424441 L144.86285,9.58591425 L146.099649,9.58591425 C146.557364,9.58591425 146.911195,9.46742946 147.161153,9.23045632 C147.411111,8.99348319 147.536088,8.65588268 147.536088,8.21764469 C147.536088,7.7826529 147.411111,7.44667548 147.161153,7.20970234 C146.911195,6.9727292 146.557364,6.85424441 146.099649,6.85424441 L144.86285,6.85424441 Z M143.879254,6.04594282 L146.099649,6.04594282 C146.914447,6.04594282 147.530405,6.23016232 147.947543,6.59860686 C148.364681,6.9670514 148.573246,7.50672528 148.573246,8.21764469 C148.573246,8.93505652 148.364681,9.47716502 147.947543,9.84398645 C147.530405,10.2108079 146.914447,10.3942158 146.099649,10.3942158 L144.86285,10.3942158 L144.86285,13.3157879 L143.879254,13.3157879 L143.879254,6.04594282 Z" id="GET-HELP" fill="#FFFFFF"></path>
            </g>
            <g id="Rectangle-3-+-Rectangle-4-+-Oval-3" transform="translate(4.421053, 5.540166)" sketch:type="MSShapeGroup">
                <rect id="Rectangle-3" stroke="#FFFFFF" stroke-width="1.10803324" x="1.10526316" y="0" width="9.94736842" height="6.64819945" rx="1.10803324"></rect>
                <rect id="Rectangle-4" fill="#FFFFFF" x="0" y="7.75623269" width="12.1578947" height="1.10803324"></rect>
                <ellipse id="Oval-3" fill="#FFFFFF" cx="6.07894737" cy="3.32409972" rx="1.25916056" ry="1.25437725"></ellipse>
            </g>
            <g id="arrowhead5" transform="translate(154.736842, 6.592794)" fill="#FFFFFF" sketch:type="MSShapeGroup">
                <path d="M0.919604641,0.477005281 C0.812743703,0.395383368 0.686312303,0.354572412 0.539999798,0.354572412 C0.393687292,0.354572412 0.267152345,0.395383368 0.160291407,0.477005281 C0.0534304689,0.558627193 0,0.655276395 0,0.766952887 L0,6.5405959 C0,6.6522724 0.0534304689,6.74900069 0.160291407,6.83054351 C0.267255892,6.91216542 0.39379084,6.95305547 0.539999798,6.95305547 C0.686208755,6.95305547 0.812743703,6.91216542 0.919604641,6.83054351 L4.69908549,3.943722 C4.80594642,3.86217918 4.85948044,3.76545089 4.85948044,3.6537744 C4.85948044,3.5420979 4.80594642,3.4454487 4.69908549,3.36382679 L0.919604641,0.477005281 Z" id="Shape"></path>
            </g>
        </g>
    </g>
</svg>